<?xml version="1.0" standalone="no"?>
<!DOCTYPE svg PUBLIC "-//W3C//DTD SVG 20010904//EN"
 "http://www.w3.org/TR/2001/REC-SVG-20010904/DTD/svg10.dtd">
<svg version="1.0" xmlns="http://www.w3.org/2000/svg"
 width="512.000000pt" height="512.000000pt" viewBox="0 0 512.000000 512.000000"
 preserveAspectRatio="xMidYMid meet">

<g transform="translate(0.000000,512.000000) scale(0.100000,-0.100000)"
fill="#000000" stroke="none">
<path d="M2445 4496 c-1298 -277 -2370 -506 -2382 -510 -11 -4 -23 -13 -26
-20 -3 -7 26 -158 64 -336 l69 -323 0 -1537 0 -1537 23 -33 c12 -19 38 -43 57
-54 35 -21 35 -21 2355 -24 1590 -2 2331 0 2356 8 51 14 88 47 110 94 18 39
19 103 19 1569 0 1035 -3 1535 -10 1548 -11 19 -47 19 -2243 20 -1290 0 -2221
4 -2207 9 14 5 993 214 2175 465 1251 266 2156 462 2164 471 13 12 6 57 -54
340 -62 293 -80 356 -103 353 -4 0 -1069 -227 -2367 -503z m2151 92 c236 -177
292 -224 278 -229 -11 -4 -139 -33 -286 -64 l-267 -56 -297 223 c-164 123
-291 224 -283 226 42 9 554 120 557 121 1 1 135 -99 298 -221z m-1197 -260
c162 -122 291 -223 286 -224 -42 -12 -540 -114 -556 -114 -19 0 -602 430 -594
439 5 4 531 119 554 120 8 1 147 -99 310 -221z m-1175 -276 c227 -170 264
-202 245 -206 -66 -15 -542 -116 -548 -116 -10 0 -585 429 -589 438 -1 5 125
35 280 69 l283 60 30 -22 c17 -12 151 -112 299 -223z m-1240 -228 c334 -249
300 -223 295 -228 -5 -5 -527 -117 -554 -119 -18 -1 -609 432 -601 440 3 3
541 120 560 122 4 1 139 -96 300 -215z m319 -557 c-4 -8 -113 -134 -242 -280
l-233 -267 -290 0 c-185 0 -288 4 -286 10 2 5 109 131 238 279 l235 270 293 1
c242 0 292 -2 285 -13z m1230 0 c-4 -8 -113 -134 -242 -280 l-233 -267 -290 0
c-185 0 -288 4 -286 10 2 5 109 131 238 279 l235 270 293 1 c242 0 292 -2 285
-13z m1230 0 c-4 -8 -113 -134 -242 -280 l-233 -267 -290 0 c-185 0 -288 4
-286 10 2 5 109 131 238 279 l235 270 293 1 c242 0 292 -2 285 -13z m1230 0
c-4 -8 -113 -134 -242 -280 l-233 -267 -290 0 c-185 0 -288 4 -286 10 2 5 109
131 238 279 l235 270 293 1 c242 0 292 -2 285 -13z"/>
</g>
</svg>
